<svg xmlns="http://www.w3.org/2000/svg" version="1.1" xmlns:xlink="http://www.w3.org/1999/xlink" xmlns:svgjs="http://svgjs.com/svgjs" width="1000" height="1000"><rect width="1000" height="1000" rx="500" ry="500" fill="#000000"></rect><g transform="matrix(23.076923076923077,0,0,23.076923076923077,55.47705395405109,86.32833282764142)"><svg xmlns="http://www.w3.org/2000/svg" version="1.1" xmlns:xlink="http://www.w3.org/1999/xlink" xmlns:svgjs="http://svgjs.com/svgjs" width="39" height="36"><svg width="39" height="36" viewBox="0 0 39 36" fill="none" xmlns="http://www.w3.org/2000/svg">
<path d="M19.4674 6.9527L25.4887 17.3819H13.4461L19.4674 6.9527Z" fill="white"></path>
<path d="M9.73402 19.4677L15.7553 29.8968H3.71274L9.73402 19.4677Z" fill="white"></path>
<path d="M34.9943 6.05061L28.8844 16.4281L22.9522 5.94802L34.9943 6.05061Z" fill="white"></path>
<path d="M34.997 29.5576L22.9553 29.7011L28.8519 19.201L34.997 29.5576Z" fill="white"></path>
<path d="M13.2402 18.5185L25.2826 18.5795L19.2086 28.978L13.2402 18.5185Z" fill="white"></path>
<path d="M3.50682 6.00354L15.5492 6.06449L9.47523 16.463L3.50682 6.00354Z" fill="white"></path>
</svg></svg></g></svg>